<?xml version="1.0" standalone="no"?>
<!DOCTYPE svg PUBLIC "-//W3C//DTD SVG 20010904//EN"
 "http://www.w3.org/TR/2001/REC-SVG-20010904/DTD/svg10.dtd">
<svg version="1.0" xmlns="http://www.w3.org/2000/svg"
 width="512.000000pt" height="512.000000pt" viewBox="0 0 512.000000 512.000000"
 preserveAspectRatio="xMidYMid meet">
<metadata>
Created by potrace 1.14, written by Peter Selinger 2001-2017
</metadata>
<g transform="translate(0.000000,512.000000) scale(0.100000,-0.100000)"
fill="#000000" stroke="none">
<path d="M2768 5115 c-2 -2 -28 -6 -58 -9 -188 -22 -391 -101 -521 -203 -34
-26 -67 -52 -74 -57 -8 -6 -27 1 -56 21 -75 52 -208 101 -327 122 -32 6 -73
13 -92 17 -48 8 -258 8 -296 0 -42 -9 -56 -27 -90 -111 -23 -60 -102 -197
-182 -315 -33 -49 -88 -167 -102 -219 -6 -24 -12 -67 -12 -95 -1 -47 -4 -54
-28 -64 -64 -29 -363 -239 -467 -328 -11 -11 -38 -33 -60 -51 -38 -31 -68 -59
-151 -135 -23 -21 -48 -51 -56 -66 -13 -26 -71 -247 -80 -307 -40 -254 -41
-260 -40 -445 1 -156 11 -243 37 -345 3 -11 8 -33 12 -50 5 -16 23 -67 41
-112 l34 -82 -20 -34 c-38 -63 -54 -137 -54 -242 0 -85 7 -125 43 -270 45
-177 45 -167 25 -331 -6 -46 -4 -53 23 -80 77 -77 342 -224 498 -276 98 -33
229 -67 272 -70 29 -2 34 -7 52 -58 59 -159 190 -306 376 -420 85 -52 144 -79
350 -163 88 -36 255 -110 370 -165 301 -143 409 -174 585 -167 194 8 367 79
569 233 47 37 133 95 191 130 172 105 241 154 305 217 153 151 204 278 215
532 0 6 24 25 54 42 l53 31 48 -21 c53 -23 115 -21 164 5 14 8 36 19 48 25 34
16 154 133 250 245 175 202 261 287 335 331 28 17 60 43 72 58 73 98 -48 432
-260 720 l-27 37 17 38 c49 101 204 471 211 500 8 40 -21 136 -75 244 -110
220 -334 425 -612 563 -93 46 -98 50 -124 103 -80 163 -201 289 -415 432 -217
144 -305 221 -420 365 -55 68 -139 197 -139 213 0 12 -41 48 -65 57 -18 7
-340 16 -347 10z"/>
</g>
</svg>
